HIERARCHY
ROOT Hips
{
	OFFSET 0.00000 0.00000 0.00000
	CHANNELS 6 Xposition Yposition Zposition Zrotation Yrotation Xrotation 
	JOINT LHipJoint
	{
		OFFSET 0 0 0
		CHANNELS 3 Zrotation Yrotation Xrotation
		JOINT LeftHip
		{
			OFFSET 1.74857 -1.85566 0.69197
			CHANNELS 3 Zrotation Yrotation Xrotation
			JOINT LeftKnee
			{
				OFFSET 2.40003 -6.59403 0.00000
				CHANNELS 3 Zrotation Yrotation Xrotation
				JOINT LeftAnkle
				{
					OFFSET 2.82169 -7.75254 0.00000
					CHANNELS 3 Zrotation Yrotation Xrotation
					JOINT LeftToe
					{
						OFFSET 0.16466 -0.45240 2.26890
						CHANNELS 3 Zrotation Yrotation Xrotation
						End Site
						{
							OFFSET 0.00000 -0.00000 1.16486
						}
					}
				}
			}
		}
	}
	JOINT RHipJoint
	{
		OFFSET 0 0 0
		CHANNELS 3 Zrotation Yrotation Xrotation
		JOINT RightHip
		{
			OFFSET -1.64169 -1.85566 0.69197
			CHANNELS 3 Zrotation Yrotation Xrotation
			JOINT RightKnee
			{
				OFFSET -2.41814 -6.64379 0.00000
				CHANNELS 3 Zrotation Yrotation Xrotation
				JOINT RightAnkle
				{
					OFFSET -2.80588 -7.70911 0.00000
					CHANNELS 3 Zrotation Yrotation Xrotation
					JOINT RightToe
					{
						OFFSET -0.19098 -0.52472 2.25401
						CHANNELS 3 Zrotation Yrotation Xrotation
						End Site
						{
							OFFSET -0.00000 -0.00000 1.16333
						}
					}
				}
			}
		}
	}
	JOINT lowerback
	{
		OFFSET 0 0 0
		CHANNELS 3 Zrotation Yrotation Xrotation
		JOINT Chest
		{
			OFFSET -0.02828 2.14690 -0.11061
			CHANNELS 3 Zrotation Yrotation Xrotation
			JOINT Chest2
			{
				OFFSET -0.00167 2.15299 0.00759
				CHANNELS 3 Zrotation Yrotation Xrotation
				JOINT lowerneck
				{
					OFFSET 0 0 0
					CHANNELS 3 Zrotation Yrotation Xrotation
					JOINT Neck
					{
						OFFSET -0.09296 1.90118 0.07197
						CHANNELS 3 Zrotation Yrotation Xrotation
						JOINT Head
						{
							OFFSET 0.08490 1.89526 -0.24604
							CHANNELS 3 Zrotation Yrotation Xrotation
							End Site
							{
								OFFSET 0.03186 1.92109 -0.09483
							}
						}
					}
				}
				JOINT LeftCollar
				{
					OFFSET 0 0 0
					CHANNELS 3 Zrotation Yrotation Xrotation
					JOINT LeftShoulder
					{
						OFFSET 3.21569 1.44644 -0.03720
CHANNELS 3 Zrotation Xrotation Yrotation
						JOINT LeftElbow
						{
OFFSET 0 -5.476510 -0.000000
CHANNELS 3 Zrotation Xrotation Yrotation
							JOINT LeftWrist
							{
OFFSET 0 -3.090580 -0.000000
CHANNELS 3 Zrotation Xrotation Yrotation
								JOINT lhand
								{
									OFFSET 0 0 0
CHANNELS 3 Zrotation Xrotation Yrotation
									JOINT LFingers
									{
OFFSET 0 -0.771610 -0.000000
CHANNELS 3 Zrotation Xrotation Yrotation
										End Site
										{
OFFSET 0 -0.622090 -0.000000
										}
									}
								}
								JOINT LThumb
								{
OFFSET 0 0.000000 0.000000
CHANNELS 3 Zrotation Xrotation Yrotation
									End Site
									{
OFFSET 0 -0.631590 0.631590
									}
								}
							}
						}
					}
				}
				JOINT RightCollar
				{
					OFFSET 0 0 0
					CHANNELS 3 Zrotation Yrotation Xrotation
					JOINT RightShoulder
					{
						OFFSET -3.38693 1.28904 -0.07093
CHANNELS 3 Zrotation Xrotation Yrotation
						JOINT RightElbow
						{
OFFSET 0 -5.141820 -0.000000
CHANNELS 3 Zrotation Xrotation Yrotation
							JOINT RightWrist
							{
OFFSET 0 -3.355650 -0.000000
CHANNELS 3 Zrotation Xrotation Yrotation
								JOINT rhand
								{
									OFFSET 0 0 0
CHANNELS 3 Zrotation Xrotation Yrotation
									JOINT RFingers
									{
OFFSET 0 -0.801040 -0.000000
CHANNELS 3 Zrotation Xrotation Yrotation
										End Site
										{
OFFSET 0 -0.645820 -0.000000
										}
									}
								}
								JOINT RThumb
								{
OFFSET 0 0.000000 0.000000
CHANNELS 3 Zrotation Xrotation Yrotation
									End Site
									{
OFFSET 0 -0.655680 0.655680
									}
								}
							}
						}
					}
				}
			}
		}
	}
}
MOTION
Frames: 4
Frame Time: 0.008333333333333333
0.102900 18.162600 -0.705200 2.831900 -2.217800 1.214700 0.000000 0.000000 0.000000 -22.979900 -4.858800 1.169600 0.348300 3.792100 10.492400 0.197800 9.877200 -16.939900 0.834500 -5.827700 -16.285300 0.000000 0.000000 0.000000 15.674400 6.146600 -3.711100 -0.963500 -6.249700 17.510800 -0.084200 -11.994800 -18.151000 -0.483300 4.457900 -12.368500 -3.823800 1.402700 3.672100 -0.438500 1.717600 0.872800 1.610400 0.868100 -1.260100 -5.714000 -3.466400 -3.586500 3.625400 -4.767000 17.022300 1.791400 -2.419100 5.957100 -0.000000 -0.000000 0.000000 16.594800 17.368900 -61.410400 50.566500 -53.221400 26.627200 8.002300 -21.377800 -35.289800 0.000000 0.000000 0.000000 -7.125000 0.000000 0.000000 -30.891600 62.881200 14.106900 -0.000000 -0.000000 0.000000 -17.954500 14.282500 65.805300 -42.278500 -49.363400 -20.151600 -15.782700 -37.308600 -7.688900 0.000000 0.000000 0.000000 7.125000 0.000000 -0.000000 8.028000 22.020500 4.475400
0.104830 18.157883 -0.663506 2.820170 -2.077138 1.381429 0.000000 0.000000 0.000000 -22.977750 -4.984139 1.000178 0.368666 3.900226 10.796292 0.225383 9.728277 -17.119759 0.829240 -5.809446 -16.232674 0.000000 0.000000 0.000000 15.662164 6.137155 -3.492402 -0.913079 -6.088617 17.041712 -0.069419 -12.206651 -18.249775 -0.484185 4.461818 -12.379772 -3.821428 1.424777 3.459713 -0.556952 1.755711 0.871289 1.490929 0.885045 -1.141153 -5.666975 -3.536211 -3.748052 3.747801 -4.879927 17.097545 1.811676 -2.460606 6.015643 0.000000 0.000000 0.000000 16.210299 17.694814 -60.343173 50.836315 -53.327284 26.843481 8.518738 -21.286085 -35.206397 0.000000 0.000000 0.000000 -7.125000 0.000000 0.000000 -30.265044 62.944643 13.837918 0.000000 0.000000 0.000000 -17.410230 14.830528 64.909497 -42.242640 -49.343884 -20.124427 -16.092496 -37.675652 -8.159046 0.000000 0.000000 0.000000 7.125000 0.000000 0.000000 7.790246 21.523116 4.429205
0.094699 18.156217 -0.621112 2.808295 -2.023736 1.522947 0.000000 0.000000 0.000000 -22.925539 -4.961599 0.982599 0.367369 3.893439 10.776990 0.228724 9.600219 -17.015565 0.841316 -5.850585 -16.351485 0.000000 0.000000 0.000000 15.740474 6.286904 -3.421024 -0.914537 -6.093301 17.055362 -0.088455 -12.257928 -18.550312 -0.459891 4.350057 -12.063595 -3.963973 1.432131 3.237238 -0.536052 1.770340 0.818829 1.596260 0.892324 -1.076271 -5.725764 -3.511221 -3.764715 3.660825 -4.823826 17.076559 1.797361 -2.442758 6.008894 0.000000 0.000000 0.000000 15.623123 18.237967 -59.163019 51.203536 -53.469528 27.138264 8.255066 -21.334863 -34.631567 0.000000 0.000000 0.000000 -7.125000 0.000000 0.000000 -29.912841 62.389442 13.270710 0.000000 0.000000 0.000000 -17.072225 15.319428 64.028644 -42.242673 -49.343886 -20.124434 -15.975579 -38.306437 -8.380661 0.000000 0.000000 0.000000 7.125000 0.000000 0.000000 7.869073 21.300618 4.514862
0.083473 18.154837 -0.575903 2.620665 -1.887597 1.561991 0.000000 0.000000 0.000000 -22.698106 -5.069348 0.922416 0.391173 4.016028 11.121812 0.271179 9.473282 -17.407003 0.836806 -5.834939 -16.306408 0.000000 0.000000 0.000000 16.024264 6.198749 -3.136946 -0.888565 -6.008621 16.809463 -0.079545 -12.436161 -18.679321 -0.443717 4.273987 -11.848830 -3.737587 1.426219 3.105308 -0.514079 1.776087 0.804449 1.495283 0.893925 -1.011467 -5.705475 -3.496488 -3.852852 3.574402 -4.784463 17.003578 1.767968 -2.427146 5.996926 0.000000 0.000000 0.000000 15.266089 18.418806 -58.495402 50.860800 -53.336791 26.863130 8.138659 -21.209736 -34.352810 0.000000 0.000000 0.000000 -7.125000 0.000000 0.000000 -29.738084 62.122644 12.998247 0.000000 0.000000 0.000000 -16.602122 15.684122 63.179734 -42.205388 -49.323554 -20.096203 -16.318257 -38.768561 -8.303619 0.000000 0.000000 0.000000 7.125000 0.000000 0.000000 7.623657 21.363373 4.360668
